<?xml version="1.0" encoding="UTF-8" standalone="no"?>
<!DOCTYPE svg PUBLIC "-//W3C//DTD SVG 1.1//EN"
 "http://www.w3.org/Graphics/SVG/1.1/DTD/svg11.dtd">
<!-- Generated by graphviz version 2.43.0 (0)
 -->
<!-- Title: perfTest.test Pages: 1 -->
<svg width="100%" height="100%" xmlns="http://www.w3.org/2000/svg" xmlns:xlink="http://www.w3.org/1999/xlink">
<script type="text/ecmascript"><![CDATA[
/**
 *  SVGPan library 1.2.2
 * ======================
 *
 * Given an unique existing element with id "viewport" (or when missing, the
 * first g-element), including the library into any SVG adds the following
 * capabilities:
 *
 *  - Mouse panning
 *  - Mouse zooming (using the wheel)
 *  - Object dragging
 *
 * You can configure the behaviour of the pan/zoom/drag with the variables
 * listed in the CONFIGURATION section of this file.
 *
 * Known issues:
 *
 *  - Zooming (while panning) on Safari has still some issues
 *
 * Releases:
 *
 * 1.2.2, Tue Aug 30 17:21:56 CEST 2011, Andrea Leofreddi
 *	- Fixed viewBox on root tag (#7)
 *	- Improved zoom speed (#2)
 *
 * 1.2.1, Mon Jul  4 00:33:18 CEST 2011, Andrea Leofreddi
 *	- Fixed a regression with mouse wheel (now working on Firefox 5)
 *	- Working with viewBox attribute (#4)
 *	- Added "use strict;" and fixed resulting warnings (#5)
 *	- Added configuration variables, dragging is disabled by default (#3)
 *
 * 1.2, Sat Mar 20 08:42:50 GMT 2010, Zeng Xiaohui
 *	Fixed a bug with browser mouse handler interaction
 *
 * 1.1, Wed Feb  3 17:39:33 GMT 2010, Zeng Xiaohui
 *	Updated the zoom code to support the mouse wheel on Safari/Chrome
 *
 * 1.0, Andrea Leofreddi
 *	First release
 *
 * This code is licensed under the following BSD license:
 *
 * Copyright 2009-2017 Andrea Leofreddi <a.leofreddi@vleo.net>. All rights reserved.
 *
 * Redistribution and use in source and binary forms, with or without modification, are
 * permitted provided that the following conditions are met:
 *
 *    1. Redistributions of source code must retain the above copyright
 *       notice, this list of conditions and the following disclaimer.
 *    2. Redistributions in binary form must reproduce the above copyright
 *       notice, this list of conditions and the following disclaimer in the
 *       documentation and/or other materials provided with the distribution.
 *    3. Neither the name of the copyright holder nor the names of its
 *       contributors may be used to endorse or promote products derived from
 *       this software without specific prior written permission.
 *
 * THIS SOFTWARE IS PROVIDED BY COPYRIGHT HOLDERS AND CONTRIBUTORS ''AS IS'' AND ANY EXPRESS
 * OR IMPLIED WARRANTIES, INCLUDING, BUT NOT LIMITED TO, THE IMPLIED WARRANTIES OF MERCHANTABILITY
 * AND FITNESS FOR A PARTICULAR PURPOSE ARE DISCLAIMED. IN NO EVENT SHALL COPYRIGHT HOLDERS OR
 * CONTRIBUTORS BE LIABLE FOR ANY DIRECT, INDIRECT, INCIDENTAL, SPECIAL, EXEMPLARY, OR
 * CONSEQUENTIAL DAMAGES (INCLUDING, BUT NOT LIMITED TO, PROCUREMENT OF SUBSTITUTE GOODS OR
 * SERVICES; LOSS OF USE, DATA, OR PROFITS; OR BUSINESS INTERRUPTION) HOWEVER CAUSED AND ON
 * ANY THEORY OF LIABILITY, WHETHER IN CONTRACT, STRICT LIABILITY, OR TORT (INCLUDING
 * NEGLIGENCE OR OTHERWISE) ARISING IN ANY WAY OUT OF THE USE OF THIS SOFTWARE, EVEN IF
 * ADVISED OF THE POSSIBILITY OF SUCH DAMAGE.
 *
 * The views and conclusions contained in the software and documentation are those of the
 * authors and should not be interpreted as representing official policies, either expressed
 * or implied, of Andrea Leofreddi.
 */

"use strict";

/// CONFIGURATION
/// ====>

var enablePan = 1; // 1 or 0: enable or disable panning (default enabled)
var enableZoom = 1; // 1 or 0: enable or disable zooming (default enabled)
var enableDrag = 0; // 1 or 0: enable or disable dragging (default disabled)
var zoomScale = 0.2; // Zoom sensitivity

/// <====
/// END OF CONFIGURATION

var root = document.documentElement;

var state = 'none', svgRoot = null, stateTarget, stateOrigin, stateTf;

setupHandlers(root);

/**
 * Register handlers
 */
function setupHandlers(root){
	setAttributes(root, {
		"onmouseup" : "handleMouseUp(evt)",
		"onmousedown" : "handleMouseDown(evt)",
		"onmousemove" : "handleMouseMove(evt)",
		//"onmouseout" : "handleMouseUp(evt)", // Decomment this to stop the pan functionality when dragging out of the SVG element
	});

	if(navigator.userAgent.toLowerCase().indexOf('webkit') >= 0)
		window.addEventListener('mousewheel', handleMouseWheel, false); // Chrome/Safari
	else
		window.addEventListener('DOMMouseScroll', handleMouseWheel, false); // Others
}

/**
 * Retrieves the root element for SVG manipulation. The element is then cached into the svgRoot global variable.
 */
function getRoot(root) {
	if(svgRoot == null) {
		var r = root.getElementById("viewport") ? root.getElementById("viewport") : root.documentElement, t = r;

		while(t != root) {
			if(t.getAttribute("viewBox")) {
				setCTM(r, t.getCTM());

				t.removeAttribute("viewBox");
			}

			t = t.parentNode;
		}

		svgRoot = r;
	}

	return svgRoot;
}

/**
 * Instance an SVGPoint object with given event coordinates.
 */
function getEventPoint(evt) {
	var p = root.createSVGPoint();

	p.x = evt.clientX;
	p.y = evt.clientY;

	return p;
}

/**
 * Sets the current transform matrix of an element.
 */
function setCTM(element, matrix) {
	var s = "matrix(" + matrix.a + "," + matrix.b + "," + matrix.c + "," + matrix.d + "," + matrix.e + "," + matrix.f + ")";

	element.setAttribute("transform", s);
}

/**
 * Dumps a matrix to a string (useful for debug).
 */
function dumpMatrix(matrix) {
	var s = "[ " + matrix.a + ", " + matrix.c + ", " + matrix.e + "\n  " + matrix.b + ", " + matrix.d + ", " + matrix.f + "\n  0, 0, 1 ]";

	return s;
}

/**
 * Sets attributes of an element.
 */
function setAttributes(element, attributes){
	for (var i in attributes)
		element.setAttributeNS(null, i, attributes[i]);
}

/**
 * Handle mouse wheel event.
 */
function handleMouseWheel(evt) {
	if(!enableZoom)
		return;

	if(evt.preventDefault)
		evt.preventDefault();

	evt.returnValue = false;

	var svgDoc = evt.target.ownerDocument;

	var delta;

	if(evt.wheelDelta)
		delta = evt.wheelDelta / 360; // Chrome/Safari
	else
		delta = evt.detail / -9; // Mozilla

	var z = Math.pow(1 + zoomScale, delta);

	var g = getRoot(svgDoc);
	
	var p = getEventPoint(evt);

	p = p.matrixTransform(g.getCTM().inverse());

	// Compute new scale matrix in current mouse position
	var k = root.createSVGMatrix().translate(p.x, p.y).scale(z).translate(-p.x, -p.y);

        setCTM(g, g.getCTM().multiply(k));

	if(typeof(stateTf) == "undefined")
		stateTf = g.getCTM().inverse();

	stateTf = stateTf.multiply(k.inverse());
}

/**
 * Handle mouse move event.
 */
function handleMouseMove(evt) {
	if(evt.preventDefault)
		evt.preventDefault();

	evt.returnValue = false;

	var svgDoc = evt.target.ownerDocument;

	var g = getRoot(svgDoc);

	if(state == 'pan' && enablePan) {
		// Pan mode
		var p = getEventPoint(evt).matrixTransform(stateTf);

		setCTM(g, stateTf.inverse().translate(p.x - stateOrigin.x, p.y - stateOrigin.y));
	} else if(state == 'drag' && enableDrag) {
		// Drag mode
		var p = getEventPoint(evt).matrixTransform(g.getCTM().inverse());

		setCTM(stateTarget, root.createSVGMatrix().translate(p.x - stateOrigin.x, p.y - stateOrigin.y).multiply(g.getCTM().inverse()).multiply(stateTarget.getCTM()));

		stateOrigin = p;
	}
}

/**
 * Handle click event.
 */
function handleMouseDown(evt) {
	if(evt.preventDefault)
		evt.preventDefault();

	evt.returnValue = false;

	var svgDoc = evt.target.ownerDocument;

	var g = getRoot(svgDoc);

	if(
		evt.target.tagName == "svg"
		|| !enableDrag // Pan anyway when drag is disabled and the user clicked on an element
	) {
		// Pan mode
		state = 'pan';

		stateTf = g.getCTM().inverse();

		stateOrigin = getEventPoint(evt).matrixTransform(stateTf);
	} else {
		// Drag mode
		state = 'drag';

		stateTarget = evt.target;

		stateTf = g.getCTM().inverse();

		stateOrigin = getEventPoint(evt).matrixTransform(stateTf);
	}
}

/**
 * Handle mouse button release event.
 */
function handleMouseUp(evt) {
	if(evt.preventDefault)
		evt.preventDefault();

	evt.returnValue = false;

	var svgDoc = evt.target.ownerDocument;

	if(state == 'pan' || state == 'drag') {
		// Quit pan mode
		state = '';
	}
}
]]></script><g id="viewport" transform="scale(0.5,0.5) translate(0,0)"><g id="graph0" class="graph" transform="scale(1 1) rotate(0) translate(4 873)">
<title>perfTest.test</title>
<polygon fill="white" stroke="transparent" points="-4,4 -4,-873 789.5,-873 789.5,4 -4,4"/>
<g id="clust1" class="cluster">
<title>cluster_L</title>
<polygon fill="none" stroke="black" points="8,-728 8,-861 618,-861 618,-728 8,-728"/>
</g>
<!-- File: perfTest.test -->
<g id="node1" class="node">
<title>File: perfTest.test</title>
<g id="a_node1"><a xlink:title="perfTest.test">
<polygon fill="#f8f8f8" stroke="black" points="609.5,-853 16.5,-853 16.5,-736 609.5,-736 609.5,-853"/>
<text text-anchor="start" x="24.5" y="-836.2" font-family="Times,serif" font-size="16.00">File: perfTest.test</text>
<text text-anchor="start" x="24.5" y="-818.2" font-family="Times,serif" font-size="16.00">Type: alloc_space</text>
<text text-anchor="start" x="24.5" y="-800.2" font-family="Times,serif" font-size="16.00">Time: Jun 22, 2023 at 6:15pm (UTC)</text>
<text text-anchor="start" x="24.5" y="-782.2" font-family="Times,serif" font-size="16.00">Showing nodes accounting for 1269.81MB, 100% of 1269.81MB total</text>
<text text-anchor="start" x="24.5" y="-745.2" font-family="Times,serif" font-size="16.00">See https://git.io/JfYMW for how to read the graph</text>
</a>
</g>
</g>
<!-- N1 -->
<g id="node1" class="node">
<title>N1</title>
<g id="a_node1"><a xlink:title="testing.(*B).launch (1269.81MB)">
<polygon fill="#edd5d5" stroke="#b20000" points="740.5,-816.5 627.5,-816.5 627.5,-772.5 740.5,-772.5 740.5,-816.5"/>
<text text-anchor="middle" x="684" y="-806.1" font-family="Times,serif" font-size="8.00">testing</text>
<text text-anchor="middle" x="684" y="-797.1" font-family="Times,serif" font-size="8.00">(*B)</text>
<text text-anchor="middle" x="684" y="-788.1" font-family="Times,serif" font-size="8.00">launch</text>
<text text-anchor="middle" x="684" y="-779.1" font-family="Times,serif" font-size="8.00">0 of 1269.81MB (100%)</text>
</a>
</g>
</g>
<!-- N3 -->
<g id="node3" class="node">
<title>N3</title>
<g id="a_node3"><a xlink:title="testing.(*B).runN (1269.81MB)">
<polygon fill="#edd5d5" stroke="#b20000" points="740.5,-685 627.5,-685 627.5,-641 740.5,-641 740.5,-685"/>
<text text-anchor="middle" x="684" y="-674.6" font-family="Times,serif" font-size="8.00">testing</text>
<text text-anchor="middle" x="684" y="-665.6" font-family="Times,serif" font-size="8.00">(*B)</text>
<text text-anchor="middle" x="684" y="-656.6" font-family="Times,serif" font-size="8.00">runN</text>
<text text-anchor="middle" x="684" y="-647.6" font-family="Times,serif" font-size="8.00">0 of 1269.81MB (100%)</text>
</a>
</g>
</g>
<!-- N1&#45;&gt;N3 -->
<g id="edge8" class="edge">
<title>N1&#45;&gt;N3</title>
<g id="a_edge8"><a xlink:title="testing.(*B).launch &#45;&gt; testing.(*B).runN (1269.81MB)">
<path fill="none" stroke="#b20000" stroke-width="6" d="M684,-772.41C684,-751.52 684,-719.3 684,-695.41"/>
<polygon fill="#b20000" stroke="#b20000" stroke-width="6" points="689.25,-695.09 684,-685.09 678.75,-695.09 689.25,-695.09"/>
</a>
</g>
<g id="a_edge8&#45;label"><a xlink:title="testing.(*B).launch &#45;&gt; testing.(*B).runN (1269.81MB)">
<text text-anchor="middle" x="728" y="-706.8" font-family="Times,serif" font-size="14.00"> 1269.81MB</text>
</a>
</g>
</g>
<!-- N2 -->
<g id="node2" class="node">
<title>N2</title>
<g id="a_node2"><a xlink:title="crypto/rc4.NewCipher (630.69MB)">
<polygon fill="#edd9d5" stroke="#b22100" points="688.5,-295 431.5,-295 431.5,-209 688.5,-209 688.5,-295"/>
<text text-anchor="middle" x="560" y="-271.8" font-family="Times,serif" font-size="24.00">rc4</text>
<text text-anchor="middle" x="560" y="-245.8" font-family="Times,serif" font-size="24.00">NewCipher</text>
<text text-anchor="middle" x="560" y="-219.8" font-family="Times,serif" font-size="24.00">630.69MB (49.67%)</text>
</a>
</g>
</g>
<!-- NN2_0 -->
<g id="NN2_0" class="node">
<title>NN2_0</title>
<g id="a_NN2_0"><a xlink:title="630.69MB">
<polygon fill="#f8f8f8" stroke="black" points="587,-140.5 537,-140.5 533,-136.5 533,-104.5 583,-104.5 587,-108.5 587,-140.5"/>
<polyline fill="none" stroke="black" points="583,-136.5 533,-136.5 "/>
<polyline fill="none" stroke="black" points="583,-136.5 583,-104.5 "/>
<polyline fill="none" stroke="black" points="583,-136.5 587,-140.5 "/>
<text text-anchor="middle" x="560" y="-120.6" font-family="Times,serif" font-size="8.00">1.12kB</text>
</a>
</g>
</g>
<!-- N2&#45;&gt;NN2_0 -->
<g id="edge1" class="edge">
<title>N2&#45;&gt;NN2_0</title>
<g id="a_edge1"><a xlink:title="630.69MB">
<path fill="none" stroke="black" d="M560,-208.9C560,-189.86 560,-167.89 560,-151.01"/>
<polygon fill="black" stroke="black" points="563.5,-150.73 560,-140.73 556.5,-150.73 563.5,-150.73"/>
</a>
</g>
<g id="a_edge1&#45;label"><a xlink:title="630.69MB">
<text text-anchor="middle" x="599.5" y="-179.8" font-family="Times,serif" font-size="14.00"> 630.69MB</text>
</a>
</g>
</g>
<!-- N10 -->
<g id="node10" class="node">
<title>N10</title>
<g id="a_node10"><a xlink:title="perfTest.BenchmarkEncryptAES (510.58MB)">
<polygon fill="#eddbd5" stroke="#b22a00" points="532,-590 416,-590 416,-554 532,-554 532,-590"/>
<text text-anchor="middle" x="474" y="-579.1" font-family="Times,serif" font-size="8.00">perfTest</text>
<text text-anchor="middle" x="474" y="-570.1" font-family="Times,serif" font-size="8.00">BenchmarkEncryptAES</text>
<text text-anchor="middle" x="474" y="-561.1" font-family="Times,serif" font-size="8.00">0 of 510.58MB (40.21%)</text>
</a>
</g>
</g>
<!-- N3&#45;&gt;N10 -->
<g id="edge13" class="edge">
<title>N3&#45;&gt;N10</title>
<g id="a_edge13"><a xlink:title="testing.(*B).runN &#45;&gt; perfTest.BenchmarkEncryptAES (510.58MB)">
<path fill="none" stroke="#b22a00" stroke-width="3" d="M634.23,-640.91C600.89,-626.78 557.17,-608.25 523.82,-594.11"/>
<polygon fill="#b22a00" stroke="#b22a00" stroke-width="3" points="524.84,-590.75 514.27,-590.07 522.11,-597.19 524.84,-590.75"/>
</a>
</g>
<g id="a_edge13&#45;label"><a xlink:title="testing.(*B).runN &#45;&gt; perfTest.BenchmarkEncryptAES (510.58MB)">
<text text-anchor="middle" x="631.5" y="-611.8" font-family="Times,serif" font-size="14.00"> 510.58MB</text>
</a>
</g>
</g>
<!-- N11 -->
<g id="node11" class="node">
<title>N11</title>
<g id="a_node11"><a xlink:title="perfTest.BenchmarkEncryptRC4 (759.22MB)">
<polygon fill="#edd8d5" stroke="#b21900" points="742,-590 626,-590 626,-554 742,-554 742,-590"/>
<text text-anchor="middle" x="684" y="-579.1" font-family="Times,serif" font-size="8.00">perfTest</text>
<text text-anchor="middle" x="684" y="-570.1" font-family="Times,serif" font-size="8.00">BenchmarkEncryptRC4</text>
<text text-anchor="middle" x="684" y="-561.1" font-family="Times,serif" font-size="8.00">0 of 759.22MB (59.79%)</text>
</a>
</g>
</g>
<!-- N3&#45;&gt;N11 -->
<g id="edge10" class="edge">
<title>N3&#45;&gt;N11</title>
<g id="a_edge10"><a xlink:title="testing.(*B).runN &#45;&gt; perfTest.BenchmarkEncryptRC4 (759.22MB)">
<path fill="none" stroke="#b21900" stroke-width="3" d="M684,-640.91C684,-628.78 684,-613.41 684,-600.36"/>
<polygon fill="#b21900" stroke="#b21900" stroke-width="3" points="687.5,-600.07 684,-590.07 680.5,-600.07 687.5,-600.07"/>
</a>
</g>
<g id="a_edge10&#45;label"><a xlink:title="testing.(*B).runN &#45;&gt; perfTest.BenchmarkEncryptRC4 (759.22MB)">
<text text-anchor="middle" x="723.5" y="-611.8" font-family="Times,serif" font-size="14.00"> 759.22MB</text>
</a>
</g>
</g>
<!-- N4 -->
<g id="node4" class="node">
<title>N4</title>
<g id="a_node4"><a xlink:title="perfTest.encryptAES (510.58MB)">
<polygon fill="#eddbd5" stroke="#b22a00" points="349.5,-503 140.5,-503 140.5,-419 349.5,-419 349.5,-503"/>
<text text-anchor="middle" x="245" y="-485.4" font-family="Times,serif" font-size="17.00">perfTest</text>
<text text-anchor="middle" x="245" y="-466.4" font-family="Times,serif" font-size="17.00">encryptAES</text>
<text text-anchor="middle" x="245" y="-447.4" font-family="Times,serif" font-size="17.00">161.54MB (12.72%)</text>
<text text-anchor="middle" x="245" y="-428.4" font-family="Times,serif" font-size="17.00">of 510.58MB (40.21%)</text>
</a>
</g>
</g>
<!-- NN4_0 -->
<g id="NN4_0" class="node">
<title>NN4_0</title>
<g id="a_NN4_0"><a xlink:title="161.54MB">
<polygon fill="#f8f8f8" stroke="black" points="272,-368 222,-368 218,-364 218,-332 268,-332 272,-336 272,-368"/>
<polyline fill="none" stroke="black" points="268,-364 218,-364 "/>
<polyline fill="none" stroke="black" points="268,-364 268,-332 "/>
<polyline fill="none" stroke="black" points="268,-364 272,-368 "/>
<text text-anchor="middle" x="245" y="-348.1" font-family="Times,serif" font-size="8.00">256B</text>
</a>
</g>
</g>
<!-- N4&#45;&gt;NN4_0 -->
<g id="edge2" class="edge">
<title>N4&#45;&gt;NN4_0</title>
<g id="a_edge2"><a xlink:title="161.54MB">
<path fill="none" stroke="black" d="M245,-418.79C245,-405.18 245,-390.38 245,-378.1"/>
<polygon fill="black" stroke="black" points="248.5,-378.04 245,-368.04 241.5,-378.04 248.5,-378.04"/>
</a>
</g>
<g id="a_edge2&#45;label"><a xlink:title="161.54MB">
<text text-anchor="middle" x="284.5" y="-389.8" font-family="Times,serif" font-size="14.00"> 161.54MB</text>
</a>
</g>
</g>
<!-- N8 -->
<g id="node8" class="node">
<title>N8</title>
<g id="a_node8"><a xlink:title="crypto/aes.NewCipher (281.54MB)">
<polygon fill="#edded5" stroke="#b24000" points="290,-270 174,-270 174,-234 290,-234 290,-270"/>
<text text-anchor="middle" x="232" y="-259.1" font-family="Times,serif" font-size="8.00">aes</text>
<text text-anchor="middle" x="232" y="-250.1" font-family="Times,serif" font-size="8.00">NewCipher</text>
<text text-anchor="middle" x="232" y="-241.1" font-family="Times,serif" font-size="8.00">0 of 281.54MB (22.17%)</text>
</a>
</g>
</g>
<!-- N4&#45;&gt;N8 -->
<g id="edge15" class="edge">
<title>N4&#45;&gt;N8</title>
<g id="a_edge15"><a xlink:title="perfTest.encryptAES &#45;&gt; crypto/aes.NewCipher (281.54MB)">
<path fill="none" stroke="#b24000" stroke-width="2" d="M317.32,-418.74C325.03,-409.24 328.86,-398.27 325,-386 311.63,-343.56 279.37,-302.87 256.61,-277.92"/>
<polygon fill="#b24000" stroke="#b24000" stroke-width="2" points="258.97,-275.32 249.59,-270.39 253.85,-280.1 258.97,-275.32"/>
</a>
</g>
<g id="a_edge15&#45;label"><a xlink:title="perfTest.encryptAES &#45;&gt; crypto/aes.NewCipher (281.54MB)">
<text text-anchor="middle" x="358.5" y="-346.3" font-family="Times,serif" font-size="14.00"> 281.54MB</text>
</a>
</g>
</g>
<!-- N9 -->
<g id="node9" class="node">
<title>N9</title>
<g id="a_node9"><a xlink:title="crypto/cipher.NewCFBEncrypter (67.50MB)">
<polygon fill="#edeae6" stroke="#b29e83" points="413.5,-270 308.5,-270 308.5,-234 413.5,-234 413.5,-270"/>
<text text-anchor="middle" x="361" y="-259.1" font-family="Times,serif" font-size="8.00">cipher</text>
<text text-anchor="middle" x="361" y="-250.1" font-family="Times,serif" font-size="8.00">NewCFBEncrypter</text>
<text text-anchor="middle" x="361" y="-241.1" font-family="Times,serif" font-size="8.00">0 of 67.50MB (5.32%)</text>
</a>
</g>
</g>
<!-- N4&#45;&gt;N9 -->
<g id="edge17" class="edge">
<title>N4&#45;&gt;N9</title>
<g id="a_edge17"><a xlink:title="perfTest.encryptAES &#45;&gt; crypto/cipher.NewCFBEncrypter (67.50MB)">
<path fill="none" stroke="#b29e83" d="M349.79,-419.17C370.64,-406.06 389.83,-389.24 402,-368 418.52,-339.17 399.44,-302.53 382.16,-278.45"/>
<polygon fill="#b29e83" stroke="#b29e83" points="384.75,-276.08 375.94,-270.19 379.16,-280.29 384.75,-276.08"/>
</a>
</g>
<g id="a_edge17&#45;label"><a xlink:title="perfTest.encryptAES &#45;&gt; crypto/cipher.NewCFBEncrypter (67.50MB)">
<text text-anchor="middle" x="444" y="-353.8" font-family="Times,serif" font-size="14.00"> 67.50MB</text>
<text text-anchor="middle" x="444" y="-338.8" font-family="Times,serif" font-size="14.00"> (inline)</text>
</a>
</g>
</g>
<!-- N5 -->
<g id="node5" class="node">
<title>N5</title>
<g id="a_node5"><a xlink:title="perfTest.encryptRC4 (759.22MB)">
<polygon fill="#edd8d5" stroke="#b21900" points="785.5,-501 582.5,-501 582.5,-421 785.5,-421 785.5,-501"/>
<text text-anchor="middle" x="684" y="-484.2" font-family="Times,serif" font-size="16.00">perfTest</text>
<text text-anchor="middle" x="684" y="-466.2" font-family="Times,serif" font-size="16.00">encryptRC4</text>
<text text-anchor="middle" x="684" y="-448.2" font-family="Times,serif" font-size="16.00">128.53MB (10.12%)</text>
<text text-anchor="middle" x="684" y="-430.2" font-family="Times,serif" font-size="16.00">of 759.22MB (59.79%)</text>
</a>
</g>
</g>
<!-- N5&#45;&gt;N2 -->
<g id="edge11" class="edge">
<title>N5&#45;&gt;N2</title>
<g id="a_edge11"><a xlink:title="perfTest.encryptRC4 &#45;&gt; crypto/rc4.NewCipher (630.69MB)">
<path fill="none" stroke="#b22100" stroke-width="3" d="M616.74,-420.93C598.15,-406.71 580.07,-388.9 569,-368 558.98,-349.08 555.76,-325.9 555.41,-305.32"/>
<polygon fill="#b22100" stroke="#b22100" stroke-width="3" points="558.91,-305.16 555.45,-295.14 551.91,-305.13 558.91,-305.16"/>
</a>
</g>
<g id="a_edge11&#45;label"><a xlink:title="perfTest.encryptRC4 &#45;&gt; crypto/rc4.NewCipher (630.69MB)">
<text text-anchor="middle" x="608.5" y="-346.3" font-family="Times,serif" font-size="14.00"> 630.69MB</text>
</a>
</g>
</g>
<!-- NN5_0 -->
<g id="NN5_0" class="node">
<title>NN5_0</title>
<g id="a_NN5_0"><a xlink:title="128.53MB">
<polygon fill="#f8f8f8" stroke="black" points="711,-368 661,-368 657,-364 657,-332 707,-332 711,-336 711,-368"/>
<polyline fill="none" stroke="black" points="707,-364 657,-364 "/>
<polyline fill="none" stroke="black" points="707,-364 707,-332 "/>
<polyline fill="none" stroke="black" points="707,-364 711,-368 "/>
<text text-anchor="middle" x="684" y="-348.1" font-family="Times,serif" font-size="8.00">240B</text>
</a>
</g>
</g>
<!-- N5&#45;&gt;NN5_0 -->
<g id="edge3" class="edge">
<title>N5&#45;&gt;NN5_0</title>
<g id="a_edge3"><a xlink:title="128.53MB">
<path fill="none" stroke="black" d="M684,-420.96C684,-406.83 684,-391.19 684,-378.29"/>
<polygon fill="black" stroke="black" points="687.5,-378.19 684,-368.19 680.5,-378.19 687.5,-378.19"/>
</a>
</g>
<g id="a_edge3&#45;label"><a xlink:title="128.53MB">
<text text-anchor="middle" x="723.5" y="-389.8" font-family="Times,serif" font-size="14.00"> 128.53MB</text>
</a>
</g>
</g>
<!-- N6 -->
<g id="node6" class="node">
<title>N6</title>
<g id="a_node6"><a xlink:title="crypto/aes.newCipher (281.54MB)">
<polygon fill="#edded5" stroke="#b24000" points="336.5,-158 127.5,-158 127.5,-87 336.5,-87 336.5,-158"/>
<text text-anchor="middle" x="232" y="-138.8" font-family="Times,serif" font-size="19.00">aes</text>
<text text-anchor="middle" x="232" y="-117.8" font-family="Times,serif" font-size="19.00">newCipher</text>
<text text-anchor="middle" x="232" y="-96.8" font-family="Times,serif" font-size="19.00">281.54MB (22.17%)</text>
</a>
</g>
</g>
<!-- NN6_0 -->
<g id="NN6_0" class="node">
<title>NN6_0</title>
<g id="a_NN6_0"><a xlink:title="225.54MB">
<polygon fill="#f8f8f8" stroke="black" points="223,-36 173,-36 169,-32 169,0 219,0 223,-4 223,-36"/>
<polyline fill="none" stroke="black" points="219,-32 169,-32 "/>
<polyline fill="none" stroke="black" points="219,-32 219,0 "/>
<polyline fill="none" stroke="black" points="219,-32 223,-36 "/>
<text text-anchor="middle" x="196" y="-16.1" font-family="Times,serif" font-size="8.00">176B</text>
</a>
</g>
</g>
<!-- N6&#45;&gt;NN6_0 -->
<g id="edge4" class="edge">
<title>N6&#45;&gt;NN6_0</title>
<g id="a_edge4"><a xlink:title="225.54MB">
<path fill="none" stroke="black" d="M204.99,-86.74C201.74,-81.07 198.9,-75.06 197,-69 194.74,-61.79 193.9,-53.71 193.78,-46.18"/>
<polygon fill="black" stroke="black" points="197.28,-46.12 194.01,-36.05 190.28,-45.97 197.28,-46.12"/>
</a>
</g>
<g id="a_edge4&#45;label"><a xlink:title="225.54MB">
<text text-anchor="middle" x="236.5" y="-57.8" font-family="Times,serif" font-size="14.00"> 225.54MB</text>
</a>
</g>
</g>
<!-- NN6_1 -->
<g id="NN6_1" class="node">
<title>NN6_1</title>
<g id="a_NN6_1"><a xlink:title="56MB">
<polygon fill="#f8f8f8" stroke="black" points="325,-36 275,-36 271,-32 271,0 321,0 325,-4 325,-36"/>
<polyline fill="none" stroke="black" points="321,-32 271,-32 "/>
<polyline fill="none" stroke="black" points="321,-32 321,0 "/>
<polyline fill="none" stroke="black" points="321,-32 325,-36 "/>
<text text-anchor="middle" x="298" y="-16.1" font-family="Times,serif" font-size="8.00">48B</text>
</a>
</g>
</g>
<!-- N6&#45;&gt;NN6_1 -->
<g id="edge5" class="edge">
<title>N6&#45;&gt;NN6_1</title>
<g id="a_edge5"><a xlink:title="56MB">
<path fill="none" stroke="black" d="M263.26,-86.96C267.82,-81.16 272.23,-75.06 276,-69 280.51,-61.75 284.56,-53.42 287.93,-45.66"/>
<polygon fill="black" stroke="black" points="291.23,-46.85 291.81,-36.27 284.75,-44.18 291.23,-46.85"/>
</a>
</g>
<g id="a_edge5&#45;label"><a xlink:title="56MB">
<text text-anchor="middle" x="308" y="-57.8" font-family="Times,serif" font-size="14.00"> 56MB</text>
</a>
</g>
</g>
<!-- N7 -->
<g id="node7" class="node">
<title>N7</title>
<g id="a_node7"><a xlink:title="crypto/cipher.newCFB (67.50MB)">
<polygon fill="#edeae6" stroke="#b29e83" points="497,-149 355,-149 355,-96 497,-96 497,-149"/>
<text text-anchor="middle" x="426" y="-133.8" font-family="Times,serif" font-size="14.00">cipher</text>
<text text-anchor="middle" x="426" y="-118.8" font-family="Times,serif" font-size="14.00">newCFB</text>
<text text-anchor="middle" x="426" y="-103.8" font-family="Times,serif" font-size="14.00">67.50MB (5.32%)</text>
</a>
</g>
</g>
<!-- NN7_0 -->
<g id="NN7_0" class="node">
<title>NN7_0</title>
<g id="a_NN7_0"><a xlink:title="49.50MB">
<polygon fill="#f8f8f8" stroke="black" points="425,-36 375,-36 371,-32 371,0 421,0 425,-4 425,-36"/>
<polyline fill="none" stroke="black" points="421,-32 371,-32 "/>
<polyline fill="none" stroke="black" points="421,-32 421,0 "/>
<polyline fill="none" stroke="black" points="421,-32 425,-36 "/>
<text text-anchor="middle" x="398" y="-16.1" font-family="Times,serif" font-size="8.00">80B</text>
</a>
</g>
</g>
<!-- N7&#45;&gt;NN7_0 -->
<g id="edge6" class="edge">
<title>N7&#45;&gt;NN7_0</title>
<g id="a_edge6"><a xlink:title="49.50MB">
<path fill="none" stroke="black" d="M409.94,-95.99C405.54,-87.7 401.34,-78.24 399,-69 397.2,-61.87 396.48,-53.99 396.32,-46.64"/>
<polygon fill="black" stroke="black" points="399.83,-46.42 396.44,-36.38 392.83,-46.34 399.83,-46.42"/>
</a>
</g>
<g id="a_edge6&#45;label"><a xlink:title="49.50MB">
<text text-anchor="middle" x="434" y="-57.8" font-family="Times,serif" font-size="14.00"> 49.50MB</text>
</a>
</g>
</g>
<!-- NN7_1 -->
<g id="NN7_1" class="node">
<title>NN7_1</title>
<g id="a_NN7_1"><a xlink:title="18MB">
<polygon fill="#f8f8f8" stroke="black" points="518,-36 468,-36 464,-32 464,0 514,0 518,-4 518,-36"/>
<polyline fill="none" stroke="black" points="514,-32 464,-32 "/>
<polyline fill="none" stroke="black" points="514,-32 514,0 "/>
<polyline fill="none" stroke="black" points="514,-32 518,-36 "/>
<text text-anchor="middle" x="491" y="-16.1" font-family="Times,serif" font-size="8.00">16B</text>
</a>
</g>
</g>
<!-- N7&#45;&gt;NN7_1 -->
<g id="edge7" class="edge">
<title>N7&#45;&gt;NN7_1</title>
<g id="a_edge7"><a xlink:title="18MB">
<path fill="none" stroke="black" d="M449.35,-95.84C456.18,-87.62 463.33,-78.24 469,-69 473.46,-61.73 477.51,-53.39 480.88,-45.63"/>
<polygon fill="black" stroke="black" points="484.17,-46.82 484.76,-36.24 477.7,-44.14 484.17,-46.82"/>
</a>
</g>
<g id="a_edge7&#45;label"><a xlink:title="18MB">
<text text-anchor="middle" x="501" y="-57.8" font-family="Times,serif" font-size="14.00"> 18MB</text>
</a>
</g>
</g>
<!-- N8&#45;&gt;N6 -->
<g id="edge14" class="edge">
<title>N8&#45;&gt;N6</title>
<g id="a_edge14"><a xlink:title="crypto/aes.NewCipher &#45;&gt; crypto/aes.newCipher (281.54MB)">
<path fill="none" stroke="#b24000" stroke-width="2" d="M232,-233.8C232,-217.06 232,-190.91 232,-168.26"/>
<polygon fill="#b24000" stroke="#b24000" stroke-width="2" points="235.5,-168.16 232,-158.16 228.5,-168.16 235.5,-168.16"/>
</a>
</g>
<g id="a_edge14&#45;label"><a xlink:title="crypto/aes.NewCipher &#45;&gt; crypto/aes.newCipher (281.54MB)">
<text text-anchor="middle" x="271.5" y="-179.8" font-family="Times,serif" font-size="14.00"> 281.54MB</text>
</a>
</g>
</g>
<!-- N9&#45;&gt;N7 -->
<g id="edge16" class="edge">
<title>N9&#45;&gt;N7</title>
<g id="a_edge16"><a xlink:title="crypto/cipher.NewCFBEncrypter &#45;&gt; crypto/cipher.newCFB (67.50MB)">
<path fill="none" stroke="#b29e83" d="M369.77,-233.8C379.6,-214.52 395.8,-182.73 408.3,-158.22"/>
<polygon fill="#b29e83" stroke="#b29e83" points="411.46,-159.72 412.89,-149.22 405.23,-156.54 411.46,-159.72"/>
</a>
</g>
<g id="a_edge16&#45;label"><a xlink:title="crypto/cipher.NewCFBEncrypter &#45;&gt; crypto/cipher.newCFB (67.50MB)">
<text text-anchor="middle" x="433" y="-179.8" font-family="Times,serif" font-size="14.00"> 67.50MB</text>
</a>
</g>
</g>
<!-- N10&#45;&gt;N4 -->
<g id="edge12" class="edge">
<title>N10&#45;&gt;N4</title>
<g id="a_edge12"><a xlink:title="perfTest.BenchmarkEncryptAES &#45;&gt; perfTest.encryptAES (510.58MB)">
<path fill="none" stroke="#b22a00" stroke-width="3" d="M438.22,-553.97C412.01,-541.49 375.13,-523.94 340.6,-507.5"/>
<polygon fill="#b22a00" stroke="#b22a00" stroke-width="3" points="341.95,-504.27 331.41,-503.13 338.94,-510.59 341.95,-504.27"/>
</a>
</g>
<g id="a_edge12&#45;label"><a xlink:title="perfTest.BenchmarkEncryptAES &#45;&gt; perfTest.encryptAES (510.58MB)">
<text text-anchor="middle" x="439.5" y="-524.8" font-family="Times,serif" font-size="14.00"> 510.58MB</text>
</a>
</g>
</g>
<!-- N11&#45;&gt;N5 -->
<g id="edge9" class="edge">
<title>N11&#45;&gt;N5</title>
<g id="a_edge9"><a xlink:title="perfTest.BenchmarkEncryptRC4 &#45;&gt; perfTest.encryptRC4 (759.22MB)">
<path fill="none" stroke="#b21900" stroke-width="3" d="M684,-553.97C684,-542.49 684,-526.71 684,-511.46"/>
<polygon fill="#b21900" stroke="#b21900" stroke-width="3" points="687.5,-511.04 684,-501.04 680.5,-511.04 687.5,-511.04"/>
</a>
</g>
<g id="a_edge9&#45;label"><a xlink:title="perfTest.BenchmarkEncryptRC4 &#45;&gt; perfTest.encryptRC4 (759.22MB)">
<text text-anchor="middle" x="723.5" y="-524.8" font-family="Times,serif" font-size="14.00"> 759.22MB</text>
</a>
</g>
</g>
</g>
</g></svg>
